{
  "accessors": [
    {
      "bufferView": 0,
      "componentType": 5125,
      "count": 147846,
      "type": "SCALAR"
    },
    {
      "bufferView": 1,
      "componentType": 5126,
      "count": 31936,
      "max": [
        0.950481712818146,
        0.383562535047531,
        0.550233602523804
      ],
      "min": [
        -0.899518072605133,
        -0.39643794298172,
        0.000234156847000122
      ],
      "type": "VEC3"
    },
    {
      "bufferView": 2,
      "componentType": 5126,
      "count": 31936,
      "type": "VEC3"
    },
    {
      "bufferView": 3,
      "componentType": 5126,
      "count": 31936,
      "type": "VEC2"
    }
  ],
  "asset": {
    "generator": "Adobe Substance 3D Painter 7.3.0",
    "version": "2.0"
  },
  "bufferViews": [
    {
      "buffer": 0,
      "byteLength": 591384,
      "target": 34963
    },
    {
      "buffer": 0,
      "byteLength": 383232,
      "byteOffset": 591384,
      "target": 34962
    },
    {
      "buffer": 0,
      "byteLength": 383232,
      "byteOffset": 974616,
      "target": 34962
    },
    {
      "buffer": 0,
      "byteLength": 255488,
      "byteOffset": 1357848,
      "target": 34962
    }
  ],
  "buffers": [
    {
      "byteLength": 1613336,
      "uri": "scene.bin"
    }
  ],
  "images": [
    {
      "uri": "Book-tittl_baseColor.png"
    },
    {
      "uri": "Book-tittl_occlusionRoughnessMetallic.png"
    },
    {
      "uri": "Book-tittl_normal.png"
    }
  ],
  "materials": [
    {
      "alphaMode": "OPAQUE",
      "name": "Book-tittl",
      "normalTexture": {
        "index": 2
      },
      "occlusionTexture": {
        "index": 1
      },
      "pbrMetallicRoughness": {
        "baseColorTexture": {
          "index": 0
        },
        "metallicRoughnessTexture": {
          "index": 1
        }
      }
    }
  ],
  "meshes": [
    {
      "name": "meshes_0",
      "primitives": [
        {
          "attributes": {
            "NORMAL": 2,
            "POSITION": 1,
            "TEXCOORD_0": 3
          },
          "indices": 0,
          "material": 0,
          "mode": 4
        }
      ]
    }
  ],
  "nodes": [
    {
      "children": [
        1
      ],
      "name": "nodes_0",
      "rotation": [
        -0.707106828689575,
        0.0,
        0.0,
        0.707106709480286
      ],
      "scale": [
        1.0,
        0.99999988079071,
        0.99999988079071
      ],
      "translation": [
        -0.0254818256944418,
        -0.000234170976909809,
        -0.00643771188333631
      ]
    },
    {
      "mesh": 0,
      "name": "meshes_0"
    }
  ],
  "samplers": [
    {
      "magFilter": 9729,
      "minFilter": 9985,
      "wrapS": 10497,
      "wrapT": 10497
    }
  ],
  "scene": 0,
  "scenes": [
    {
      "name": "Scene",
      "nodes": [
        0
      ]
    }
  ],
  "textures": [
    {
      "sampler": 0,
      "source": 0
    },
    {
      "sampler": 0,
      "source": 1
    },
    {
      "sampler": 0,
      "source": 2
    }
  ]
}